<svg xmlns="http://www.w3.org/2000/svg" viewBox="0 0 1200 630" width="1200" height="630">
  <rect width="1200" height="630" fill="#0a0a0a"/>
  <rect width="1200" height="630" fill="url(#grad)" opacity="0.4"/>
  <defs>
    <radialGradient id="grad" cx="30%" cy="20%" r="60%">
      <stop offset="0%" stop-color="#1A50E8" stop-opacity="0.5"/>
      <stop offset="100%" stop-color="#0a0a0a" stop-opacity="0"/>
    </radialGradient>
  </defs>
  <!-- Grid -->
  <g opacity="0.07" stroke="#ffffff" stroke-width="1">
    <line x1="0" y1="0" x2="0" y2="630"/><line x1="50" y1="0" x2="50" y2="630"/><line x1="100" y1="0" x2="100" y2="630"/><line x1="150" y1="0" x2="150" y2="630"/><line x1="200" y1="0" x2="200" y2="630"/><line x1="250" y1="0" x2="250" y2="630"/><line x1="300" y1="0" x2="300" y2="630"/><line x1="350" y1="0" x2="350" y2="630"/><line x1="400" y1="0" x2="400" y2="630"/><line x1="450" y1="0" x2="450" y2="630"/><line x1="500" y1="0" x2="500" y2="630"/><line x1="550" y1="0" x2="550" y2="630"/><line x1="600" y1="0" x2="600" y2="630"/><line x1="650" y1="0" x2="650" y2="630"/><line x1="700" y1="0" x2="700" y2="630"/><line x1="750" y1="0" x2="750" y2="630"/><line x1="800" y1="0" x2="800" y2="630"/><line x1="850" y1="0" x2="850" y2="630"/><line x1="900" y1="0" x2="900" y2="630"/><line x1="950" y1="0" x2="950" y2="630"/><line x1="1000" y1="0" x2="1000" y2="630"/><line x1="1050" y1="0" x2="1050" y2="630"/><line x1="1100" y1="0" x2="1100" y2="630"/><line x1="1150" y1="0" x2="1150" y2="630"/><line x1="1200" y1="0" x2="1200" y2="630"/>
    <line x1="0" y1="0" x2="1200" y2="0"/><line x1="0" y1="50" x2="1200" y2="50"/><line x1="0" y1="100" x2="1200" y2="100"/><line x1="0" y1="150" x2="1200" y2="150"/><line x1="0" y1="200" x2="1200" y2="200"/><line x1="0" y1="250" x2="1200" y2="250"/><line x1="0" y1="300" x2="1200" y2="300"/><line x1="0" y1="350" x2="1200" y2="350"/><line x1="0" y1="400" x2="1200" y2="400"/><line x1="0" y1="450" x2="1200" y2="450"/><line x1="0" y1="500" x2="1200" y2="500"/><line x1="0" y1="550" x2="1200" y2="550"/><line x1="0" y1="600" x2="1200" y2="600"/>
  </g>
  <!-- IDEA Chevron Mark -->
  <path d="M80 500L160 340L185 390L115 500Z" fill="#1A50E8"/>
  <path d="M130 500L210 340L235 390L165 500Z" fill="#1A50E8" opacity="0.5"/>
  <!-- Logo text -->
  <text x="80" y="280" font-family="Arial,sans-serif" font-size="96" font-weight="900" fill="white" letter-spacing="-4">IDEA</text>
  <text x="80" y="320" font-family="Arial,sans-serif" font-size="20" fill="rgba(255,255,255,0.5)" letter-spacing="6">INTEGRATED DIGITAL ECOSYSTEM ASIA</text>
  <!-- Subtitle -->
  <text x="80" y="390" font-family="Arial,sans-serif" font-size="32" fill="rgba(255,255,255,0.8)" font-weight="300">Tech Talent Acquisition</text>
  <!-- Domain -->
  <text x="1120" y="590" font-family="Arial,sans-serif" font-size="18" fill="rgba(255,255,255,0.3)" text-anchor="end">idea-asia.com</text>
</svg>